<?xml version="1.0" encoding="UTF-8" standalone="no"?>
<!DOCTYPE svg PUBLIC "-//W3C//DTD SVG 1.1//EN" "http://www.w3.org/Graphics/SVG/1.1/DTD/svg11.dtd">
<svg width="100%" height="100%" viewBox="0 0 128 128" version="1.1" xmlns="http://www.w3.org/2000/svg" xmlns:xlink="http://www.w3.org/1999/xlink" xml:space="preserve" xmlns:serif="http://www.serif.com/" style="fill-rule:evenodd;clip-rule:evenodd;stroke-linejoin:round;stroke-miterlimit:2;">
    <g transform="matrix(1,0,0,1,-3.585,-12.015)">
        <path d="M67.59,133.88C39.98,133.88 17.51,111.41 17.51,83.8C17.51,56.19 39.98,33.72 67.59,33.72C69.6,33.72 71.22,35.35 71.22,37.35C71.22,39.35 69.59,40.98 67.59,40.98C43.98,40.98 24.78,60.19 24.78,83.79C24.78,107.39 43.99,126.6 67.59,126.6C91.19,126.6 110.4,107.4 110.4,83.79C110.4,68.64 102.27,54.48 89.18,46.81C87.45,45.8 86.87,43.57 87.88,41.84C88.89,40.11 91.12,39.52 92.85,40.54C108.16,49.5 117.66,66.07 117.66,83.79C117.66,111.4 95.19,133.87 67.58,133.87L67.59,133.88Z" style="fill:circleColor;fill-rule:nonzero;"/>
    </g>
    <g transform="matrix(1,0,0,1,-3.585,-12.015)">
        <path d="M67.59,117.53C48.99,117.53 33.86,102.4 33.86,83.8C33.86,65.2 48.21,50.66 66.52,50.09C68.51,50.03 70.2,51.6 70.27,53.61C70.33,55.62 68.76,57.29 66.75,57.36C52.62,57.8 41.13,69.66 41.13,83.81C41.13,97.96 53,110.27 67.59,110.27C82.18,110.27 94.05,98.4 94.05,83.81C94.05,75.18 89.81,67.07 82.7,62.1C81.05,60.95 80.65,58.68 81.8,57.04C82.95,55.4 85.22,54.99 86.86,56.14C95.91,62.46 101.31,72.8 101.31,83.8C101.31,102.4 86.18,117.53 67.58,117.53L67.59,117.53Z" style="fill:circleColor;fill-rule:nonzero;"/>
    </g>
    <g transform="matrix(1,0,0,1,-3.585,-12.015)">
        <path d="M67.59,101.18C58.01,101.18 50.22,93.39 50.22,83.81C50.22,74.23 58.01,66.44 67.59,66.44C69.6,66.44 71.22,68.07 71.22,70.07C71.22,72.07 69.59,73.7 67.59,73.7C62.02,73.7 57.48,78.23 57.48,83.81C57.48,89.39 62.01,93.92 67.59,93.92C73.17,93.92 77.7,89.39 77.7,83.81C77.7,81.36 76.81,78.99 75.18,77.15C73.85,75.64 74,73.35 75.51,72.02C77.02,70.69 79.31,70.84 80.64,72.35C83.43,75.52 84.97,79.59 84.97,83.81C84.97,93.39 77.18,101.18 67.6,101.18L67.59,101.18Z" style="fill:circleColor;fill-rule:nonzero;"/>
    </g>
    <g transform="matrix(1,0,0,1,-3.585,-12.015)">
        <path d="M73.04,45.33C75.96,43.51 77.91,40.27 77.91,36.58C77.91,30.89 73.28,18.15 67.59,18.15C61.9,18.15 57.27,30.89 57.27,36.58C57.27,40.27 59.22,43.51 62.14,45.33C64.12,46.57 65.13,48.91 64.91,51.24L61.99,81.69C61.62,85.16 64.66,88.21 68.14,87.84C71.24,87.54 73.51,84.79 73.21,81.69C73.21,81.69 71.53,64.24 70.28,51.24C70.06,48.91 71.06,46.57 73.05,45.34L73.04,45.33Z" style="fill:spoonColor;fill-rule:nonzero;"/>
    </g>
</svg>
